# xmcd
#
# Track frame offsets:
# 150
# 14185
# 28323
# 42670
# 57331
# 70193
# 85187
# 101089
# 116618
# 131910
# 147143
# 160911
# 175229
# 188942
# 203333
# 218264
# 231982
# 245596
# 260720
# 275342
#
# Disc length: 3869 seconds
#
#
# Revision: 2
# Processed by: cddbd v1.5.2PL0 Copyright (c) Steve Scherf et al.
# Submitted via: FreeRIP 2.951 
#
DISCID=2f0f1b14
DTITLE=Louis Armstrong - After You've Gone [CD 1)
DYEAR=2004
DGENRE=Blues
TTITLE0=Cornet Chop Suey
TTITLE1=Jazz Lips
TTITLE2=Skid - Dat - De - Dat
TTITLE3=Wild Man Blues
TTITLE4=Alligator Crawl
TTITLE5=Twelfth Street Rag
TTITLE6=Struttin' With Some Barbecue
TTITLE7=West End Blues
TTITLE8=Basin Street Blues
TTITLE9=Beau Koo Jack
TTITLE10=Muggles
TTITLE11=Tight Like This
TTITLE12=I Can't Give You Anything But Love
TTITLE13=Mahogany Hall Stomp
TTITLE14=Ain't Misbehavin
TTITLE15=After You've Gone
TTITLE16=St. Louis Blues
TTITLE17=Rockin' Chair
TTITLE18=Tiger Rag
TTITLE19=Body And Soul
EXTD=
EXTT0=
EXTT1=
EXTT2=
EXTT3=
EXTT4=
EXTT5=
EXTT6=
EXTT7=
EXTT8=
EXTT9=
EXTT10=
EXTT11=
EXTT12=
EXTT13=
EXTT14=
EXTT15=
EXTT16=
EXTT17=
EXTT18=
EXTT19=
PLAYORDER=
